<svg width="48" height="48" viewBox="0 0 48 48" fill="none" xmlns="http://www.w3.org/2000/svg">
<mask id="mask0_2015_77" style="mask-type:alpha" maskUnits="userSpaceOnUse" x="0" y="0" width="48" height="48">
<rect width="48" height="48" fill="#D9D9D9"/>
</mask>
<g mask="url(#mask0_2015_77)">
<path d="M9.45012 40.876C7.18645 40.876 5.26795 40.0737 3.69462 38.469C2.12162 36.8644 1.29812 34.9239 1.22412 32.6475C1.22412 32.3115 1.24545 31.9794 1.28812 31.651C1.33079 31.3227 1.38545 30.9897 1.45212 30.652L5.65212 13.824C6.17545 11.8544 7.23129 10.2452 8.81962 8.99652C10.4083 7.74819 12.2185 7.12402 14.2501 7.12402H33.7501C35.7818 7.12402 37.592 7.74819 39.1806 8.99652C40.769 10.2452 41.8248 11.8544 42.3481 13.824L46.5481 30.624C46.6335 30.9617 46.7011 31.3079 46.7511 31.6625C46.8011 32.0172 46.8261 32.3625 46.8261 32.6985C46.8261 34.9765 46.0165 36.9089 44.3971 38.4955C42.7781 40.0825 40.829 40.876 38.5496 40.876C36.9803 40.876 35.525 40.467 34.1836 39.649C32.8423 38.831 31.834 37.7039 31.1586 36.2675L29.7586 33.3955C29.6673 33.2132 29.528 33.081 29.3406 32.999C29.1533 32.917 28.9565 32.876 28.7501 32.876H19.2501C19.0438 32.876 18.847 32.917 18.6596 32.999C18.4723 33.081 18.333 33.2132 18.2416 33.3955L16.8416 36.2675C16.1663 37.7039 15.1571 38.831 13.8141 39.649C12.4715 40.467 11.0168 40.876 9.45012 40.876ZM28.4251 21.425C28.8085 21.0417 29.0001 20.5667 29.0001 20C29.0001 19.4334 28.8085 18.9584 28.4251 18.575C28.0418 18.1917 27.5668 18 27.0001 18C26.4335 18 25.9585 18.1917 25.5751 18.575C25.1918 18.9584 25.0001 19.4334 25.0001 20C25.0001 20.5667 25.1918 21.0417 25.5751 21.425C25.9585 21.8084 26.4335 22 27.0001 22C27.5668 22 28.0418 21.8084 28.4251 21.425ZM32.4251 17.425C32.8085 17.0417 33.0001 16.5667 33.0001 16C33.0001 15.4334 32.8085 14.9584 32.4251 14.575C32.0418 14.1917 31.5668 14 31.0001 14C30.4335 14 29.9585 14.1917 29.5751 14.575C29.1918 14.9584 29.0001 15.4334 29.0001 16C29.0001 16.5667 29.1918 17.0417 29.5751 17.425C29.9585 17.8084 30.4335 18 31.0001 18C31.5668 18 32.0418 17.8084 32.4251 17.425ZM32.4251 25.425C32.8085 25.0417 33.0001 24.5667 33.0001 24C33.0001 23.4334 32.8085 22.9584 32.4251 22.575C32.0418 22.1917 31.5668 22 31.0001 22C30.4335 22 29.9585 22.1917 29.5751 22.575C29.1918 22.9584 29.0001 23.4334 29.0001 24C29.0001 24.5667 29.1918 25.0417 29.5751 25.425C29.9585 25.8084 30.4335 26 31.0001 26C31.5668 26 32.0418 25.8084 32.4251 25.425ZM36.4251 21.425C36.8085 21.0417 37.0001 20.5667 37.0001 20C37.0001 19.4334 36.8085 18.9584 36.4251 18.575C36.0418 18.1917 35.5668 18 35.0001 18C34.4335 18 33.9585 18.1917 33.5751 18.575C33.1918 18.9584 33.0001 19.4334 33.0001 20C33.0001 20.5667 33.1918 21.0417 33.5751 21.425C33.9585 21.8084 34.4335 22 35.0001 22C35.5668 22 36.0418 21.8084 36.4251 21.425ZM18.0751 24.575C18.3585 24.2917 18.5001 23.9334 18.5001 23.5V21.5H20.5001C20.9335 21.5 21.2918 21.3584 21.5751 21.075C21.8585 20.7917 22.0001 20.4334 22.0001 20C22.0001 19.5667 21.8585 19.2084 21.5751 18.925C21.2918 18.6417 20.9335 18.5 20.5001 18.5H18.5001V16.5C18.5001 16.0667 18.3585 15.7084 18.0751 15.425C17.7918 15.1417 17.4335 15 17.0001 15C16.5668 15 16.2085 15.1417 15.9251 15.425C15.6418 15.7084 15.5001 16.0667 15.5001 16.5V18.5H13.5001C13.0668 18.5 12.7085 18.6417 12.4251 18.925C12.1418 19.2084 12.0001 19.5667 12.0001 20C12.0001 20.4334 12.1418 20.7917 12.4251 21.075C12.7085 21.3584 13.0668 21.5 13.5001 21.5H15.5001V23.5C15.5001 23.9334 15.6418 24.2917 15.9251 24.575C16.2085 24.8584 16.5668 25 17.0001 25C17.4335 25 17.7918 24.8584 18.0751 24.575Z" fill="#DA825D"/>
</g>
</svg>
