<svg width="48" height="48" viewBox="0 0 48 48" fill="none" xmlns="http://www.w3.org/2000/svg">
<mask id="mask0_2015_37" style="mask-type:alpha" maskUnits="userSpaceOnUse" x="0" y="0" width="48" height="48">
<rect width="48" height="48" fill="#D9D9D9"/>
</mask>
<g mask="url(#mask0_2015_37)">
<path d="M24.0001 35.2261C26.5567 35.2261 28.7336 34.3276 30.5306 32.5306C32.3276 30.7336 33.2261 28.5567 33.2261 26.0001C33.2261 23.4434 32.3276 21.2666 30.5306 19.4696C28.7336 17.6726 26.5567 16.7741 24.0001 16.7741C21.4434 16.7741 19.2666 17.6726 17.4696 19.4696C15.6726 21.2666 14.7741 23.4434 14.7741 26.0001C14.7741 28.5567 15.6726 30.7336 17.4696 32.5306C19.2666 34.3276 21.4434 35.2261 24.0001 35.2261ZM24.0001 30.4916C22.7321 30.4916 21.6666 30.0599 20.8036 29.1966C19.9402 28.3336 19.5086 27.2681 19.5086 26.0001C19.5086 24.7321 19.9402 23.6666 20.8036 22.8036C21.6666 21.9402 22.7321 21.5086 24.0001 21.5086C25.2681 21.5086 26.3336 21.9402 27.1966 22.8036C28.0599 23.6666 28.4916 24.7321 28.4916 26.0001C28.4916 27.2681 28.0599 28.3336 27.1966 29.1966C26.3336 30.0599 25.2681 30.4916 24.0001 30.4916ZM8.33906 42.9611C6.8624 42.9611 5.6099 42.4469 4.58156 41.4186C3.55323 40.3902 3.03906 39.1377 3.03906 37.6611V14.3391C3.03906 12.8624 3.55323 11.6099 4.58156 10.5816C5.6099 9.55323 6.8624 9.03906 8.33906 9.03906H13.7916L16.3481 6.53706C16.8277 6.06173 17.3917 5.69323 18.0401 5.43156C18.6887 5.16989 19.3529 5.03906 20.0326 5.03906H27.9676C28.6472 5.03906 29.3114 5.16989 29.9601 5.43156C30.6084 5.69323 31.1724 6.06173 31.6521 6.53706L34.2086 9.03906H39.6611C41.1377 9.03906 42.3902 9.55323 43.4186 10.5816C44.4469 11.6099 44.9611 12.8624 44.9611 14.3391V37.6611C44.9611 39.1377 44.4469 40.3902 43.4186 41.4186C42.3902 42.4469 41.1377 42.9611 39.6611 42.9611H8.33906Z" fill="#3D74C5"/>
</g>
</svg>
