<svg width="48" height="48" viewBox="0 0 48 48" fill="none" xmlns="http://www.w3.org/2000/svg">
<mask id="mask0_2015_57" style="mask-type:alpha" maskUnits="userSpaceOnUse" x="0" y="0" width="48" height="48">
<rect width="48" height="48" fill="#D9D9D9"/>
</mask>
<g mask="url(#mask0_2015_57)">
<path d="M25.5761 44V34.226L22.0546 30.876L20.7306 36.787C20.5596 37.49 20.1785 38.035 19.5871 38.422C18.9958 38.8086 18.3393 38.9331 17.6176 38.7955L7.88712 36.824C7.20745 36.6863 6.68462 36.3416 6.31862 35.79C5.95262 35.2386 5.83845 34.6231 5.97612 33.9435C6.11379 33.2638 6.46312 32.7326 7.02412 32.35C7.58479 31.9673 8.20512 31.8521 8.88512 32.0044L16.0611 33.5195L19.0351 18.45L16.1696 19.539V24.0565C16.1696 24.7361 15.9356 25.3101 15.4676 25.7785C14.9993 26.2465 14.4253 26.4805 13.7456 26.4805C13.066 26.4805 12.4875 26.2416 12.0101 25.764C11.5325 25.2866 11.2936 24.7081 11.2936 24.0285V18.126C11.2936 17.5753 11.4443 17.0851 11.7456 16.6555C12.0473 16.2258 12.4473 15.8993 12.9456 15.676L19.7306 12.8609C20.9536 12.3609 21.8496 12.0265 22.4186 11.8575C22.9873 11.6888 23.5145 11.6045 24.0001 11.6045C24.7945 11.6045 25.5105 11.816 26.1481 12.239C26.7858 12.6623 27.3161 13.2021 27.7391 13.8585L29.7956 17.0585C30.4393 18.0978 31.2818 19.0011 32.3231 19.7685C33.3645 20.5358 34.5901 21.0623 36.0001 21.348C36.6798 21.4856 37.2538 21.8015 37.7221 22.2955C38.1901 22.7898 38.4241 23.3768 38.4241 24.0565C38.4241 24.7361 38.1853 25.3065 37.7076 25.7675C37.2303 26.2281 36.659 26.4063 35.9936 26.302C34.2503 26.0353 32.6281 25.5146 31.1271 24.74C29.6265 23.9656 28.3356 23.0205 27.2546 21.9045L26.2806 26.915L29.5981 30.0609C29.8735 30.3173 30.08 30.613 30.2176 30.948C30.3553 31.2826 30.4241 31.6304 30.4241 31.9914V44C30.4241 44.6796 30.1901 45.2536 29.7221 45.722C29.2538 46.1899 28.6798 46.424 28.0001 46.424C27.3205 46.424 26.7465 46.1899 26.2781 45.722C25.8101 45.2536 25.5761 44.6796 25.5761 44ZM23.9066 9.27395C23.0386 8.40562 22.6046 7.35562 22.6046 6.12395C22.6046 4.89195 23.0386 3.84662 23.9066 2.98795C24.7746 2.12928 25.8246 1.69995 27.0566 1.69995C28.2886 1.69995 29.334 2.12928 30.1926 2.98795C31.0513 3.84662 31.4806 4.89195 31.4806 6.12395C31.4806 7.35562 31.0513 8.40562 30.1926 9.27395C29.334 10.142 28.2886 10.576 27.0566 10.576C25.8246 10.576 24.7746 10.142 23.9066 9.27395Z" fill="#27B936"/>
</g>
</svg>
